<mxfile host="Electron" modified="2023-02-24T13:20:05.576Z" agent="5.0 (Windows NT 10.0; Win64; x64) AppleWebKit/537.36 (KHTML, like Gecko) draw.io/16.5.1 Chrome/96.0.4664.110 Electron/16.0.7 Safari/537.36" etag="etEQbY6NLiPu2Fv0SEXx" compressed="false" version="16.5.1" type="device">
  <diagram id="xPusLIxSEpzNee_yrfys" name="Page-1">
    <mxGraphModel dx="2254" dy="929" grid="1" gridSize="10" guides="1" tooltips="1" connect="1" arrows="1" fold="1" page="1" pageScale="1" pageWidth="1600" pageHeight="900" math="0" shadow="0">
      <root>
        <mxCell id="0" />
        <mxCell id="1" parent="0" />
        <mxCell id="uin2eYay0mz96ajNARI--2" value="API" style="rounded=1;whiteSpace=wrap;html=1;fontSize=20;" vertex="1" parent="1">
          <mxGeometry x="280" y="480" width="1040" height="40" as="geometry" />
        </mxCell>
        <mxCell id="uin2eYay0mz96ajNARI--3" value="Web UI" style="rounded=1;whiteSpace=wrap;html=1;fontSize=20;" vertex="1" parent="1">
          <mxGeometry x="280" y="400" width="320" height="40" as="geometry" />
        </mxCell>
        <mxCell id="uin2eYay0mz96ajNARI--4" value="Translation" style="rounded=1;whiteSpace=wrap;html=1;fontSize=20;" vertex="1" parent="1">
          <mxGeometry x="640" y="400" width="320" height="40" as="geometry" />
        </mxCell>
        <mxCell id="uin2eYay0mz96ajNARI--5" value="Translation PII" style="rounded=1;whiteSpace=wrap;html=1;fontSize=20;" vertex="1" parent="1">
          <mxGeometry x="640" y="320" width="320" height="40" as="geometry" />
        </mxCell>
        <mxCell id="uin2eYay0mz96ajNARI--6" value="Cognito Local Users" style="rounded=1;whiteSpace=wrap;html=1;fontSize=20;" vertex="1" parent="1">
          <mxGeometry x="280" y="560" width="480" height="40" as="geometry" />
        </mxCell>
        <mxCell id="uin2eYay0mz96ajNARI--12" value="Required" style="text;html=1;strokeColor=none;fillColor=none;align=right;verticalAlign=middle;whiteSpace=wrap;rounded=0;" vertex="1" parent="1">
          <mxGeometry x="210" y="490" width="60" height="20" as="geometry" />
        </mxCell>
        <mxCell id="uin2eYay0mz96ajNARI--13" value="Requires at least 1" style="text;html=1;strokeColor=none;fillColor=none;align=right;verticalAlign=middle;whiteSpace=wrap;rounded=0;" vertex="1" parent="1">
          <mxGeometry x="120" y="570" width="150" height="20" as="geometry" />
        </mxCell>
        <mxCell id="uin2eYay0mz96ajNARI--14" value="Cognito SAML Users" style="rounded=1;whiteSpace=wrap;html=1;fontSize=20;" vertex="1" parent="1">
          <mxGeometry x="840" y="560" width="480" height="40" as="geometry" />
        </mxCell>
        <mxCell id="uin2eYay0mz96ajNARI--15" value="Optional" style="text;html=1;strokeColor=none;fillColor=none;align=right;verticalAlign=middle;whiteSpace=wrap;rounded=0;" vertex="1" parent="1">
          <mxGeometry x="210" y="410" width="60" height="20" as="geometry" />
        </mxCell>
        <mxCell id="uin2eYay0mz96ajNARI--16" value="Optional" style="text;html=1;strokeColor=none;fillColor=none;align=right;verticalAlign=middle;whiteSpace=wrap;rounded=0;" vertex="1" parent="1">
          <mxGeometry x="210" y="330" width="60" height="20" as="geometry" />
        </mxCell>
        <mxCell id="uin2eYay0mz96ajNARI--23" style="edgeStyle=orthogonalEdgeStyle;rounded=0;orthogonalLoop=1;jettySize=auto;html=1;entryX=0.5;entryY=0;entryDx=0;entryDy=0;" edge="1" parent="1" source="uin2eYay0mz96ajNARI--17" target="uin2eYay0mz96ajNARI--6">
          <mxGeometry relative="1" as="geometry">
            <Array as="points">
              <mxPoint x="800" y="550" />
              <mxPoint x="520" y="550" />
            </Array>
          </mxGeometry>
        </mxCell>
        <mxCell id="uin2eYay0mz96ajNARI--24" style="edgeStyle=orthogonalEdgeStyle;rounded=0;orthogonalLoop=1;jettySize=auto;html=1;entryX=0.5;entryY=0;entryDx=0;entryDy=0;" edge="1" parent="1" source="uin2eYay0mz96ajNARI--17" target="uin2eYay0mz96ajNARI--14">
          <mxGeometry relative="1" as="geometry">
            <Array as="points">
              <mxPoint x="800" y="550" />
              <mxPoint x="1080" y="550" />
            </Array>
          </mxGeometry>
        </mxCell>
        <mxCell id="uin2eYay0mz96ajNARI--17" value="Depends on" style="text;html=1;strokeColor=none;fillColor=none;align=center;verticalAlign=middle;whiteSpace=wrap;rounded=0;" vertex="1" parent="1">
          <mxGeometry x="280" y="520" width="1040" height="20" as="geometry" />
        </mxCell>
        <mxCell id="uin2eYay0mz96ajNARI--27" style="edgeStyle=orthogonalEdgeStyle;rounded=0;orthogonalLoop=1;jettySize=auto;html=1;entryX=0.154;entryY=0;entryDx=0;entryDy=0;entryPerimeter=0;" edge="1" parent="1" source="uin2eYay0mz96ajNARI--19" target="uin2eYay0mz96ajNARI--2">
          <mxGeometry relative="1" as="geometry" />
        </mxCell>
        <mxCell id="uin2eYay0mz96ajNARI--19" value="Depends on" style="text;html=1;strokeColor=none;fillColor=none;align=center;verticalAlign=middle;whiteSpace=wrap;rounded=0;" vertex="1" parent="1">
          <mxGeometry x="280" y="440" width="320" height="20" as="geometry" />
        </mxCell>
        <mxCell id="uin2eYay0mz96ajNARI--25" style="edgeStyle=orthogonalEdgeStyle;rounded=0;orthogonalLoop=1;jettySize=auto;html=1;" edge="1" parent="1" source="uin2eYay0mz96ajNARI--20" target="uin2eYay0mz96ajNARI--2">
          <mxGeometry relative="1" as="geometry" />
        </mxCell>
        <mxCell id="uin2eYay0mz96ajNARI--20" value="Depends on" style="text;html=1;strokeColor=none;fillColor=none;align=center;verticalAlign=middle;whiteSpace=wrap;rounded=0;" vertex="1" parent="1">
          <mxGeometry x="640" y="440" width="320" height="20" as="geometry" />
        </mxCell>
        <mxCell id="uin2eYay0mz96ajNARI--28" style="edgeStyle=orthogonalEdgeStyle;rounded=0;orthogonalLoop=1;jettySize=auto;html=1;entryX=0.5;entryY=0;entryDx=0;entryDy=0;" edge="1" parent="1" source="uin2eYay0mz96ajNARI--21" target="uin2eYay0mz96ajNARI--4">
          <mxGeometry relative="1" as="geometry" />
        </mxCell>
        <mxCell id="uin2eYay0mz96ajNARI--21" value="Depends on" style="text;html=1;strokeColor=none;fillColor=none;align=center;verticalAlign=middle;whiteSpace=wrap;rounded=0;" vertex="1" parent="1">
          <mxGeometry x="640" y="360" width="320" height="20" as="geometry" />
        </mxCell>
      </root>
    </mxGraphModel>
  </diagram>
</mxfile>
